<svg width="40" height="40" viewBox="0 0 40 40" fill="none" xmlns="http://www.w3.org/2000/svg">
<rect width="40" height="40" fill="#E30611"/>
<path fill-rule="evenodd" clip-rule="evenodd" d="M20.3294 15.1599H18.0236V13H25.1059V15.1599H22.8V20.9999H20.3294V15.1599ZM30.3762 15.16H34V13H30.3765C27.0471 13 25.2695 14.608 25.2695 17C25.2695 19.392 27.0471 21 30.3765 21H34V18.84H30.3762C28.8357 18.84 27.8224 18.305 27.8224 17C27.8224 15.695 28.8357 15.16 30.3762 15.16ZM11.6817 17.7751L12.9988 13H17.3647V21H14.894V14.4887L13.0981 21H10.2653L8.47058 14.4928L8.4705 21H6V13H10.3646L11.6817 17.7751Z" fill="white"/>
<path fill-rule="evenodd" clip-rule="evenodd" d="M14.0639 27.3188H13.1803V28.1014H14.0639C14.2876 28.1014 14.4209 27.9913 14.4209 27.7883V27.6435C14.4209 27.4347 14.306 27.3188 14.0639 27.3188ZM14.2876 28.9999H12V25H15.365V25.9565H13.1803V26.4782H14.2876C15.2138 26.4782 15.6616 26.9188 15.6616 27.6956C15.6616 28.5129 15.2138 28.9999 14.2876 28.9999ZM18.385 27.3652H17.4527L17.9189 25.887L18.385 27.3652ZM20.1765 29L18.8871 25H17.1323L15.8429 29H16.9444L17.1806 28.2348H18.6575L18.8992 29H20.1765ZM23.1603 29V27.4522H21.8104V29H20.6002V25H21.8104V26.4666H23.1603V25H24.3709V29H23.1603ZM26.5186 26.4666H26.3066V25H25.0963V29H26.3066V27.4522H26.4824L27.6022 29H29L27.4869 26.9072L28.8792 25H27.6022L26.5186 26.4666Z" fill="white"/>
</svg>
