<svg width="41" height="41" viewBox="0 0 41 41" fill="none" xmlns="http://www.w3.org/2000/svg">
<mask id="mask0_2047_8462" style="mask-type:luminance" maskUnits="userSpaceOnUse" x="13" y="2" width="15" height="37">
<path d="M27.647 2.66406H13.0078V38.6641H27.647V2.66406Z" fill="white"/>
</mask>
<g mask="url(#mask0_2047_8462)">
<path d="M15.4948 38.5921C14.5922 38.5921 13.7255 38.0779 13.3063 37.1993C12.7376 35.985 13.2491 34.5422 14.4575 33.9636C19.5383 31.5565 22.8147 26.3279 22.8147 20.6636C22.8147 14.9993 19.5383 9.77073 14.4644 7.35646C13.2565 6.78503 12.7446 5.33503 13.3132 4.12075C13.8819 2.90647 15.3242 2.39217 16.5325 2.96361C19.8085 4.52074 22.5869 6.97076 24.5554 10.0493C26.5736 13.2136 27.6468 16.885 27.6468 20.6636C27.6468 24.4422 26.5736 28.1136 24.5484 31.2708C22.5799 34.3493 19.8012 36.7993 16.5251 38.3567C16.1985 38.5207 15.843 38.5921 15.4948 38.5921Z" fill="#9638E3"/>
</g>
</svg>
