<svg viewBox="0 0 60 60" fill="none" xmlns="http://www.w3.org/2000/svg"><path d="M0 30C0 16.85 0 10.275 3.632 5.85A16 16 0 0 1 5.85 3.632C10.275 0 16.85 0 30 0c13.15 0 19.725 0 24.15 3.632.81.665 1.553 1.408 2.218 2.218C60 10.275 60 16.85 60 30c0 13.15 0 19.725-3.632 24.15a16.009 16.009 0 0 1-2.218 2.218C49.725 60 43.15 60 30 60c-13.15 0-19.725 0-24.15-3.632a16.004 16.004 0 0 1-2.218-2.218C0 49.725 0 43.15 0 30Z" fill="#fff"/><path fill="#fff" d="M0 0h60v60H0z"/><path d="M45.429 18.166c.922 1.2 1.69 2.517 2.344 3.91L30.02 35.28l-7.454-4.724v-5.653l7.416 4.685 15.446-11.422Z" fill="#21A038"/><path d="M14.996 30.169c0-.271 0-.503.038-.774l-4.496-.233c0 .31-.038.658-.038.968 0 5.42 2.19 10.338 5.725 13.9l3.19-3.214a14.938 14.938 0 0 1-4.42-10.647Z" fill="url(#a)"/><path d="M29.975 15.07c.269 0 .5 0 .768.038l.23-4.53c-.306 0-.652-.038-.96-.038-5.379 0-10.259 2.207-13.794 5.769l3.19 3.213a14.78 14.78 0 0 1 10.566-4.452Z" fill="url(#b)"/><path d="M29.983 45.27c-.269 0-.5 0-.768-.038l-.23 4.53c.307 0 .653.039.96.039 5.38 0 10.259-2.207 13.794-5.77l-3.19-3.213c-2.689 2.788-6.416 4.453-10.566 4.453Z" fill="url(#c)"/><path d="m38.428 17.702 3.804-2.827c-3.343-2.71-7.608-4.375-12.257-4.375v4.53c3.15.039 6.07 1.007 8.453 2.672Z" fill="url(#d)"/><path d="M49.5 30.17c0-1.2-.115-2.362-.307-3.523l-4.188 3.136v.387c0 4.453-1.921 8.44-4.957 11.19l3.036 3.368A19.68 19.68 0 0 0 49.5 30.17Z" fill="#21A038"/><path d="M29.98 45.27c-4.418 0-8.375-1.936-11.104-4.995l-3.342 3.059c3.573 3.988 8.722 6.466 14.447 6.466v-4.53Z" fill="url(#e)"/><path d="m19.952 18.978-3.035-3.368A19.603 19.603 0 0 0 10.5 30.168h4.496c0-4.414 1.92-8.44 4.956-11.19Z" fill="url(#f)"/><defs><linearGradient id="a" x1="15.745" y1="43.479" x2="11.155" y2="30.109" gradientUnits="userSpaceOnUse"><stop offset=".144" stop-color="#F2E913"/><stop offset=".304" stop-color="#E7E518"/><stop offset=".582" stop-color="#CADB26"/><stop offset=".891" stop-color="#A3CD39"/></linearGradient><linearGradient id="b" x1="17.501" y1="15.798" x2="29.154" y2="11.323" gradientUnits="userSpaceOnUse"><stop offset=".059" stop-color="#0FA8E0"/><stop offset=".538" stop-color="#0099F9"/><stop offset=".923" stop-color="#0291EB"/></linearGradient><linearGradient id="c" x1="28.72" y1="45.948" x2="42.613" y2="42.784" gradientUnits="userSpaceOnUse"><stop offset=".123" stop-color="#A3CD39"/><stop offset=".285" stop-color="#86C339"/><stop offset=".869" stop-color="#21A038"/></linearGradient><linearGradient id="d" x1="29.051" y1="13.385" x2="40.602" y2="16.977" gradientUnits="userSpaceOnUse"><stop offset=".057" stop-color="#0291EB"/><stop offset=".79" stop-color="#0C8ACB"/></linearGradient><linearGradient id="e" x1="16.677" y1="44.052" x2="29.083" y2="48.723" gradientUnits="userSpaceOnUse"><stop offset=".132" stop-color="#F2E913"/><stop offset=".298" stop-color="#EBE716"/><stop offset=".531" stop-color="#D9E01F"/><stop offset=".802" stop-color="#BBD62D"/><stop offset=".983" stop-color="#A3CD39"/></linearGradient><linearGradient id="f" x1="13.945" y1="30.715" x2="18.907" y2="17.707" gradientUnits="userSpaceOnUse"><stop offset=".07" stop-color="#A3CD39"/><stop offset=".26" stop-color="#81C55F"/><stop offset=".922" stop-color="#0FA8E0"/></linearGradient></defs></svg>